# xmcd
#
# Track frame offsets:
#	150
#	15600
#	30424
#	41726
#	54820
#	68373
#	80388
#	96963
#	112269
#	126445
#	143971
#	159165
#
# Disc length: 2413 seconds
#
# Revision: 2
# Processed by: cddbd v1.5.2PL0 Copyright (c) Steve Scherf et al.
# Submitted via: EasyCDDAExtractor 12.0.4.1
#
DISCID=94096b0c
DTITLE=plubพลับ
DYEAR=1900
DGENRE=Pop
TTITLE0=คูณครุครับ
TTITLE1=ใครใครก็ไม่รักผม
TTITLE2=ก็เลยเล่าสู่กันฟัง
TTITLE3=อยากมีพีสาว
TTITLE4=ลูกชิ้นของฉัน
TTITLE5=ฉันจะร้องเพลง
TTITLE6=เหนื่อยไหมคนดี
TTITLE7=พ่อครับ
TTITLE8=สงสัยจัง
TTITLE9=คนไม่สำคัญ
TTITLE10=อยากเป็น
TTITLE11=คุณครูก็ไม่รักผม
EXTD=
EXTT0=
EXTT1=
EXTT2=
EXTT3=
EXTT4=
EXTT5=
EXTT6=
EXTT7=
EXTT8=
EXTT9=
EXTT10=
EXTT11=
PLAYORDER=
